<?xml version="1.0" standalone="no"?>
<!DOCTYPE svg PUBLIC "-//W3C//DTD SVG 20010904//EN"
 "http://www.w3.org/TR/2001/REC-SVG-20010904/DTD/svg10.dtd">
<svg version="1.0" xmlns="http://www.w3.org/2000/svg"
 width="500.000000pt" height="218.000000pt" viewBox="0 0 500.000000 218.000000"
 preserveAspectRatio="xMidYMid meet">

<g transform="translate(0.000000,218.000000) scale(0.100000,-0.100000)"
fill="#000000" stroke="none">
<path d="M3883 1482 c-6 -4 -13 -34 -15 -67 l-3 -60 -42 -3 c-35 -3 -43 -7
-43 -23 0 -16 7 -19 45 -19 l45 0 0 -195 c0 -223 6 -245 66 -265 21 -7 54 -9
80 -5 39 5 44 9 44 32 0 26 -12 27 -62 8 -8 -3 -26 3 -39 14 -24 19 -24 22
-27 215 l-4 196 66 0 c59 0 66 2 66 20 0 18 -7 20 -65 20 l-65 0 0 70 c0 60
-2 70 -17 70 -10 0 -23 -4 -30 -8z"/>
<path d="M702 1340 c-39 -24 -52 -25 -52 -5 0 10 -10 15 -32 15 l-33 0 3 -250
3 -250 28 0 29 0 4 178 c4 194 9 216 68 266 36 30 68 33 110 11 56 -29 64 -60
68 -267 l4 -188 28 0 28 0 4 173 c3 193 14 231 78 275 44 30 83 28 120 -5 40
-37 50 -95 50 -289 l0 -154 30 0 30 0 0 193 c0 180 -1 196 -22 237 -28 56 -73
80 -146 80 -55 0 -101 -17 -139 -53 l-23 -20 -27 28 c-36 35 -63 45 -126 45
-34 0 -63 -7 -85 -20z"/>
<path d="M1516 1346 c-47 -18 -91 -58 -119 -111 -32 -59 -32 -212 0 -272 51
-94 149 -136 272 -115 75 13 123 46 161 113 22 38 25 56 25 139 0 83 -3 102
-26 145 -15 30 -42 62 -67 79 -36 26 -52 30 -124 33 -55 2 -96 -2 -122 -11z
m167 -40 c75 -31 113 -114 105 -228 -10 -140 -104 -221 -218 -187 -51 16 -105
74 -121 131 -17 64 -6 159 25 211 43 74 133 105 209 73z"/>
<path d="M2092 1340 c-39 -24 -52 -25 -52 -5 0 10 -10 15 -30 15 l-30 0 0
-250 0 -250 29 0 29 0 4 178 c4 194 9 216 68 266 36 30 68 33 110 11 56 -29
64 -60 68 -267 l4 -188 28 0 28 0 4 173 c3 193 14 231 78 275 44 30 83 28 120
-5 40 -37 50 -95 50 -289 l0 -154 30 0 30 0 0 193 c0 180 -1 196 -22 237 -28
56 -73 80 -146 80 -55 0 -101 -17 -139 -53 l-23 -20 -27 28 c-36 35 -63 45
-126 45 -34 0 -63 -7 -85 -20z"/>
<path d="M2895 1344 c-81 -42 -126 -116 -133 -220 -15 -228 149 -343 360 -252
38 16 48 25 48 44 0 29 -18 31 -62 5 -18 -11 -52 -25 -75 -32 -98 -28 -203 65
-203 182 l0 29 186 0 185 0 -6 48 c-16 111 -50 172 -111 198 -45 19 -151 18
-189 -2z m178 -62 c27 -28 61 -116 50 -134 -2 -5 -69 -8 -149 -8 -160 0 -147
-6 -128 60 31 110 154 154 227 82z"/>
<path d="M3422 1335 c-43 -24 -44 -24 -49 -5 -4 14 -14 20 -34 20 l-29 0 0
-250 0 -250 30 0 30 0 0 153 c0 177 8 215 59 269 30 32 46 41 82 45 38 4 50 1
77 -22 17 -14 36 -43 42 -63 5 -20 10 -115 10 -209 l0 -173 36 0 36 0 -4 193
c-3 216 -13 252 -77 294 -50 33 -149 32 -209 -2z"/>
<path d="M4205 1346 c-47 -21 -77 -60 -82 -108 -7 -63 23 -102 122 -155 114
-60 133 -89 100 -153 -27 -53 -95 -60 -177 -19 -48 24 -48 24 -48 -10 0 -39
43 -56 135 -55 117 1 181 53 172 142 -6 56 -30 81 -129 132 -90 47 -113 74
-104 124 12 64 79 92 150 62 55 -23 68 -21 64 11 -2 19 -10 29 -28 34 -43 12
-144 9 -175 -5z"/>
</g>
</svg>
